<svg xmlns="http://www.w3.org/2000/svg"
     width="440" height="440"
     viewBox="286 403 280 280"
     version="1.1">
  <g transform="translate(-140 460) scale(0.6)">
    <path d="M 845.0 195.0
             A 5.0 5.0 0 0 0 850.0 200.0
             A 10.0 10.0 0 0 0 840.0 210.0
             A 15.0 15.0 0 0 0 825.0 195.0
             A 25.0 25.0 0 0 0 850.0 170.0
             A 40.0 40.0 0 0 0 890.0 210.0
             A 65.0 65.0 0 0 0 825.0 275.0
             A 105.0 105.0 0 0 0 720.0 170.0
             A 170.0 170.0 0 0 0 890.0 0.0
             A 275.0 275.0 0 0 0 1165.0 275.0"
          fill="none"
          stroke="#daa425"
          stroke-width="8"
          stroke-linecap="round"
          stroke-linejoin="round"/>
  </g>
</svg>
