<svg xmlns="http://www.w3.org/2000/svg"
     width="400"
     height="400"
     viewBox="-450 -450 900 900">

  <!-- Outward-facing Fibonacci spiral
       Fibonacci sizes: 1,1,2,3,5,8,13,21,34,55,89,144 (scaled x3) -->

  <path
    d="
      M 3 0
      A 3 3 0 0 1 0 3
      A 3 3 0 0 1 -3 0
      A 6 6 0 0 1 3 -6
      A 9 9 0 0 1 12 3
      A 15 15 0 0 1 -3 18
      A 24 24 0 0 1 -27 -6
      A 39 39 0 0 1 12 -45
      A 63 63 0 0 1 75 18
      A 102 102 0 0 1 -27 120
      A 165 165 0 0 1 -192 -45
      A 267 267 0 0 1 75 -312
      A 432 432 0 0 1 507 120
    "
    fill="none"
    stroke="#daa425"
    stroke-width="8"
    stroke-linecap="round"
    stroke-linejoin="round"
  />
</svg>
